<?xml version="1.0" encoding="UTF-8" standalone="no"?>
<!-- Created with Inkscape (http://www.inkscape.org/) -->

<svg
   xmlns:dc="http://purl.org/dc/elements/1.1/"
   xmlns:cc="http://creativecommons.org/ns#"
   xmlns:rdf="http://www.w3.org/1999/02/22-rdf-syntax-ns#"
   xmlns:svg="http://www.w3.org/2000/svg"
   xmlns="http://www.w3.org/2000/svg"
   xmlns:sodipodi="http://sodipodi.sourceforge.net/DTD/sodipodi-0.dtd"
   xmlns:inkscape="http://www.inkscape.org/namespaces/inkscape"
   version="1.1"
   id="svg815"
   xml:space="preserve"
   width="322.24008"
   height="378.88055"
   viewBox="0 0 322.24008 378.88057"
   sodipodi:docname="washer.svg"
   inkscape:version="0.92.3 (2405546, 2018-03-11)"><metadata
     id="metadata821"><rdf:RDF><cc:Work
         rdf:about=""><dc:format>image/svg+xml</dc:format><dc:type
           rdf:resource="http://purl.org/dc/dcmitype/StillImage" /><dc:title /></cc:Work></rdf:RDF></metadata><defs
     id="defs819" /><sodipodi:namedview
     pagecolor="#ffffff"
     bordercolor="#666666"
     borderopacity="1"
     objecttolerance="10"
     gridtolerance="10"
     guidetolerance="10"
     inkscape:pageopacity="0"
     inkscape:pageshadow="2"
     inkscape:window-width="2048"
     inkscape:window-height="1100"
     id="namedview817"
     showgrid="false"
     inkscape:zoom="0.83113593"
     inkscape:cx="155.60006"
     inkscape:cy="140.34773"
     inkscape:window-x="-8"
     inkscape:window-y="-8"
     inkscape:window-maximized="1"
     inkscape:current-layer="g823" /><g
     id="g823"
     inkscape:groupmode="layer"
     inkscape:label="washer"
     transform="translate(-241.27994,-130.23952)"><g
       id="g825"
       transform="translate(562.88,145.75999)"
       style="stroke:#ff0000;stroke-opacity:1"><path
         d="m 0,0 -0.16,-2.56 -0.8,-2.56 -1.12,-2.4 -1.44,-2.08 -1.92,-1.92 -2.08,-1.44 -2.4,-1.12 -2.56,-0.8 -2.56,-0.16"
         style="fill:none;stroke:#ff0000;stroke-width:0.95999998;stroke-linecap:round;stroke-linejoin:bevel;stroke-miterlimit:10;stroke-dasharray:none;stroke-opacity:1"
         id="path827"
         inkscape:connector-curvature="0" /></g><g
       id="g829"
       style="stroke:#ff0000;stroke-opacity:1"><path
         d="M 547.84003,130.72 H 256.95999"
         style="fill:none;stroke:#ff0000;stroke-width:0.95999998;stroke-linecap:round;stroke-linejoin:round;stroke-miterlimit:10;stroke-dasharray:none;stroke-opacity:1"
         id="path831"
         inkscape:connector-curvature="0" /></g><g
       id="g833"
       transform="translate(256.95999,130.72)"
       style="stroke:#ff0000;stroke-opacity:1"><path
         d="m 0,0 -2.56,0.16 -2.56,0.8 -2.4,1.12 -2.08,1.44 -1.92,1.92 -1.44,2.08 -1.12,2.4 -0.8,2.56 -0.16,2.56"
         style="fill:none;stroke:#ff0000;stroke-width:0.95999998;stroke-linecap:round;stroke-linejoin:bevel;stroke-miterlimit:10;stroke-dasharray:none;stroke-opacity:1"
         id="path835"
         inkscape:connector-curvature="0" /></g><g
       id="g837"
       style="stroke:#ff0000;stroke-opacity:1"><path
         d="M 241.75999,145.75999 V 493.44"
         style="fill:none;stroke:#ff0000;stroke-width:0.95999998;stroke-linecap:round;stroke-linejoin:round;stroke-miterlimit:10;stroke-dasharray:none;stroke-opacity:1"
         id="path839"
         inkscape:connector-curvature="0" /></g><g
       id="g841"
       transform="translate(241.92,493.44)"
       style="stroke:#ff0000;stroke-opacity:1"><path
         d="m 0,0 0.16,2.56 0.8,2.56 1.12,2.4 1.44,2.08 1.92,1.92 2.08,1.44 2.4,1.12 2.56,0.8 2.56,0.16"
         style="fill:none;stroke:#ff0000;stroke-width:0.95999998;stroke-linecap:round;stroke-linejoin:bevel;stroke-miterlimit:10;stroke-dasharray:none;stroke-opacity:1"
         id="path843"
         inkscape:connector-curvature="0" /></g><g
       id="g845"
       style="stroke:#ff0000;stroke-opacity:1"><path
         d="M 256.95999,508.64002 H 547.84003"
         style="fill:none;stroke:#ff0000;stroke-width:0.95999998;stroke-linecap:round;stroke-linejoin:round;stroke-miterlimit:10;stroke-dasharray:none;stroke-opacity:1"
         id="path847"
         inkscape:connector-curvature="0" /></g><g
       id="g849"
       transform="translate(547.84003,508.48001)"
       style="stroke:#ff0000;stroke-opacity:1"><path
         d="m 0,0 2.56,-0.16 2.56,-0.8 2.4,-1.12 2.08,-1.44 1.92,-1.92 1.44,-2.08 1.12,-2.4 0.8,-2.56 0.16,-2.56"
         style="fill:none;stroke:#ff0000;stroke-width:0.95999998;stroke-linecap:round;stroke-linejoin:bevel;stroke-miterlimit:10;stroke-dasharray:none;stroke-opacity:1"
         id="path851"
         inkscape:connector-curvature="0" /></g><g
       id="g853"
       style="stroke:#ff0000;stroke-opacity:1"><path
         d="M 563.03998,493.44 V 145.75999"
         style="fill:none;stroke:#ff0000;stroke-width:0.95999998;stroke-linecap:round;stroke-linejoin:round;stroke-miterlimit:10;stroke-dasharray:none;stroke-opacity:1"
         id="path855"
         inkscape:connector-curvature="0" /></g><g
       id="g857"
       style="stroke:#ff0000;stroke-opacity:1"><path
         d="M 525.28003,470.88 H 279.51999 v -302.4 h 245.76004 z"
         style="fill:none;stroke:#ff0000;stroke-width:0.95999998;stroke-linecap:round;stroke-linejoin:round;stroke-miterlimit:10;stroke-dasharray:none;stroke-opacity:1"
         id="path859"
         inkscape:connector-curvature="0" /></g><g
       id="g861"
       transform="translate(355.20001,499.04001)"
       style="stroke:#ff0000;stroke-opacity:1"><path
         d="M 0,0 1.44,-0.16 2.88,-0.8 4.16,-1.76 4.96,-3.04 5.44,-4.48 5.6,-5.92 5.28,-7.52 4.64,-8.8 3.52,-9.92 2.24,-10.72 0.8,-11.2 h -1.6 l -1.44,0.48 -1.28,0.8 -1.12,1.12 -0.64,1.28 -0.32,1.6 0.16,1.44 0.48,1.44 0.8,1.28 1.28,0.96 1.44,0.64 z"
         style="fill:none;stroke:#ff0000;stroke-width:0.95999998;stroke-linecap:round;stroke-linejoin:bevel;stroke-miterlimit:10;stroke-dasharray:none;stroke-opacity:1"
         id="path863"
         inkscape:connector-curvature="0" /></g><g
       id="g865"
       transform="translate(307.84,499.04001)"
       style="stroke:#ff0000;stroke-opacity:1"><path
         d="M 0,0 1.44,-0.16 2.88,-0.8 4.16,-1.76 4.96,-3.04 5.44,-4.48 5.6,-5.92 5.28,-7.52 4.64,-8.8 3.52,-9.92 2.24,-10.72 0.8,-11.2 h -1.6 l -1.44,0.48 -1.28,0.8 -1.12,1.12 -0.64,1.28 -0.32,1.6 0.16,1.44 0.48,1.44 0.8,1.28 1.28,0.96 1.44,0.64 z"
         style="fill:none;stroke:#ff0000;stroke-width:0.95999998;stroke-linecap:round;stroke-linejoin:bevel;stroke-miterlimit:10;stroke-dasharray:none;stroke-opacity:1"
         id="path867"
         inkscape:connector-curvature="0" /></g><g
       id="g869"
       transform="translate(402.39999,499.04001)"
       style="stroke:#ff0000;stroke-opacity:1"><path
         d="M 0,0 1.44,-0.16 2.88,-0.8 4.16,-1.76 4.96,-3.04 5.44,-4.48 5.6,-5.92 5.28,-7.52 4.64,-8.8 3.52,-9.92 2.24,-10.72 0.8,-11.2 h -1.6 l -1.44,0.48 -1.28,0.8 -1.12,1.12 -0.64,1.28 -0.32,1.6 0.16,1.44 0.48,1.44 0.8,1.28 1.28,0.96 1.44,0.64 z"
         style="fill:none;stroke:#ff0000;stroke-width:0.95999998;stroke-linecap:round;stroke-linejoin:bevel;stroke-miterlimit:10;stroke-dasharray:none;stroke-opacity:1"
         id="path871"
         inkscape:connector-curvature="0" /></g><g
       id="g873"
       transform="translate(496.79999,499.04001)"
       style="stroke:#ff0000;stroke-opacity:1"><path
         d="M 0,0 1.44,-0.16 2.88,-0.8 4.16,-1.76 4.96,-3.04 5.44,-4.48 5.6,-5.92 5.28,-7.52 4.64,-8.8 3.52,-9.92 2.24,-10.72 0.8,-11.2 h -1.6 l -1.44,0.48 -1.28,0.8 -1.12,1.12 -0.64,1.28 -0.32,1.6 0.16,1.44 0.48,1.44 0.8,1.28 1.28,0.96 1.44,0.64 z"
         style="fill:none;stroke:#ff0000;stroke-width:0.95999998;stroke-linecap:round;stroke-linejoin:bevel;stroke-miterlimit:10;stroke-dasharray:none;stroke-opacity:1"
         id="path875"
         inkscape:connector-curvature="0" /></g><g
       id="g877"
       transform="translate(402.39999,151.36)"
       style="stroke:#ff0000;stroke-opacity:1"><path
         d="M 0,0 1.44,-0.16 2.88,-0.8 4.16,-1.76 4.96,-3.04 5.44,-4.48 5.6,-5.92 5.28,-7.52 4.64,-8.8 3.52,-9.92 2.24,-10.72 0.8,-11.2 h -1.6 l -1.44,0.48 -1.28,0.8 -1.12,1.12 -0.64,1.28 -0.32,1.6 0.16,1.44 0.48,1.44 0.8,1.28 1.28,0.96 1.44,0.64 z"
         style="fill:none;stroke:#ff0000;stroke-width:0.95999998;stroke-linecap:round;stroke-linejoin:bevel;stroke-miterlimit:10;stroke-dasharray:none;stroke-opacity:1"
         id="path879"
         inkscape:connector-curvature="0" /></g><g
       id="g881"
       transform="translate(498.72,151.36)"
       style="stroke:#ff0000;stroke-opacity:1"><path
         d="M 0,0 1.44,-0.16 2.88,-0.8 4.16,-1.76 4.96,-3.04 5.44,-4.48 5.6,-5.92 5.28,-7.52 4.64,-8.8 3.52,-9.92 2.24,-10.72 0.8,-11.2 h -1.6 l -1.44,0.48 -1.28,0.8 -1.12,1.12 -0.64,1.28 -0.32,1.6 0.16,1.44 0.48,1.44 0.8,1.28 1.28,0.96 1.44,0.64 z"
         style="fill:none;stroke:#ff0000;stroke-width:0.95999998;stroke-linecap:round;stroke-linejoin:bevel;stroke-miterlimit:10;stroke-dasharray:none;stroke-opacity:1"
         id="path883"
         inkscape:connector-curvature="0" /></g><g
       id="g885"
       transform="translate(256.95999,268.64002)"
       style="stroke:#ff0000;stroke-opacity:1"><path
         d="M 0,0 1.44,-0.16 2.88,-0.8 4.16,-1.76 4.96,-3.04 5.44,-4.48 5.6,-5.92 5.28,-7.52 4.64,-8.8 3.52,-9.92 2.24,-10.72 0.8,-11.2 h -1.6 l -1.44,0.48 -1.28,0.8 -1.12,1.12 -0.64,1.28 -0.32,1.6 0.16,1.44 0.48,1.44 0.8,1.28 1.28,0.96 1.44,0.64 z"
         style="fill:none;stroke:#ff0000;stroke-width:0.95999998;stroke-linecap:round;stroke-linejoin:bevel;stroke-miterlimit:10;stroke-dasharray:none;stroke-opacity:1"
         id="path887"
         inkscape:connector-curvature="0" /></g><g
       id="g889"
       transform="translate(256.95999,381.92001)"
       style="stroke:#ff0000;stroke-opacity:1"><path
         d="M 0,0 1.44,-0.16 2.88,-0.8 4.16,-1.76 4.96,-3.04 5.44,-4.48 5.6,-5.92 5.28,-7.52 4.64,-8.8 3.52,-9.92 2.24,-10.72 0.8,-11.2 h -1.6 l -1.44,0.48 -1.28,0.8 -1.12,1.12 -0.64,1.28 -0.32,1.6 0.16,1.44 0.48,1.44 0.8,1.28 1.28,0.96 1.44,0.64 z"
         style="fill:none;stroke:#ff0000;stroke-width:0.95999998;stroke-linecap:round;stroke-linejoin:bevel;stroke-miterlimit:10;stroke-dasharray:none;stroke-opacity:1"
         id="path891"
         inkscape:connector-curvature="0" /></g><g
       id="g893"
       transform="translate(547.84003,325.28)"
       style="stroke:#ff0000;stroke-opacity:1"><path
         d="M 0,0 1.44,-0.16 2.88,-0.8 4.16,-1.76 4.96,-3.04 5.44,-4.48 5.6,-5.92 5.28,-7.52 4.64,-8.8 3.52,-9.92 2.24,-10.72 0.8,-11.2 h -1.6 l -1.44,0.48 -1.28,0.8 -1.12,1.12 -0.64,1.28 -0.32,1.6 0.16,1.44 0.48,1.44 0.8,1.28 1.28,0.96 1.44,0.64 z"
         style="fill:none;stroke:#ff0000;stroke-width:0.95999998;stroke-linecap:round;stroke-linejoin:bevel;stroke-miterlimit:10;stroke-dasharray:none;stroke-opacity:1"
         id="path895"
         inkscape:connector-curvature="0" /></g><g
       id="g897"
       transform="translate(547.84003,381.92001)"
       style="stroke:#ff0000;stroke-opacity:1"><path
         d="M 0,0 1.44,-0.16 2.88,-0.8 4.16,-1.76 4.96,-3.04 5.44,-4.48 5.6,-5.92 5.28,-7.52 4.64,-8.8 3.52,-9.92 2.24,-10.72 0.8,-11.2 h -1.6 l -1.44,0.48 -1.28,0.8 -1.12,1.12 -0.64,1.28 -0.32,1.6 0.16,1.44 0.48,1.44 0.8,1.28 1.28,0.96 1.44,0.64 z"
         style="fill:none;stroke:#ff0000;stroke-width:0.95999998;stroke-linecap:round;stroke-linejoin:bevel;stroke-miterlimit:10;stroke-dasharray:none;stroke-opacity:1"
         id="path899"
         inkscape:connector-curvature="0" /></g><g
       id="g901"
       transform="translate(547.84003,211.84)"
       style="stroke:#ff0000;stroke-opacity:1"><path
         d="M 0,0 1.44,-0.16 2.88,-0.8 4.16,-1.76 4.96,-3.04 5.44,-4.48 5.6,-5.92 5.28,-7.52 4.64,-8.8 3.52,-9.92 2.24,-10.72 0.8,-11.2 h -1.6 l -1.44,0.48 -1.28,0.8 -1.12,1.12 -0.64,1.28 -0.32,1.6 0.16,1.44 0.48,1.44 0.8,1.28 1.28,0.96 1.44,0.64 z"
         style="fill:none;stroke:#ff0000;stroke-width:0.95999998;stroke-linecap:round;stroke-linejoin:bevel;stroke-miterlimit:10;stroke-dasharray:none;stroke-opacity:1"
         id="path903"
         inkscape:connector-curvature="0" /></g><g
       id="g905"
       transform="translate(260.64002,495.35999)"
       style="stroke:#ff0000;stroke-opacity:1"><path
         d="M 0,0 1.44,-0.16 2.88,-0.8 4.16,-1.76 4.96,-3.04 5.44,-4.48 5.6,-5.92 5.28,-7.52 4.64,-8.8 3.52,-9.92 2.24,-10.72 0.8,-11.2 h -1.6 l -1.44,0.48 -1.28,0.8 -1.12,1.12 -0.64,1.28 -0.32,1.6 0.16,1.44 0.48,1.44 0.8,1.28 1.28,0.96 1.44,0.64 z"
         style="fill:none;stroke:#ff0000;stroke-width:0.95999998;stroke-linecap:round;stroke-linejoin:bevel;stroke-miterlimit:10;stroke-dasharray:none;stroke-opacity:1"
         id="path907"
         inkscape:connector-curvature="0" /></g><g
       id="g909"
       transform="translate(544.15997,155.2)"
       style="stroke:#ff0000;stroke-opacity:1"><path
         d="M 0,0 1.44,-0.16 2.88,-0.8 4.16,-1.76 4.96,-3.04 5.44,-4.48 5.6,-5.92 5.28,-7.52 4.64,-8.8 3.52,-9.92 2.24,-10.72 0.8,-11.2 h -1.6 l -1.44,0.48 -1.28,0.8 -1.12,1.12 -0.64,1.28 -0.32,1.6 0.16,1.44 0.48,1.44 0.8,1.28 1.28,0.96 1.44,0.64 z"
         style="fill:none;stroke:#ff0000;stroke-width:0.95999998;stroke-linecap:round;stroke-linejoin:bevel;stroke-miterlimit:10;stroke-dasharray:none;stroke-opacity:1"
         id="path911"
         inkscape:connector-curvature="0" /></g><g
       id="g913"
       transform="translate(260.64002,155.2)"
       style="stroke:#ff0000;stroke-opacity:1"><path
         d="M 0,0 1.44,-0.16 2.88,-0.8 4.16,-1.76 4.96,-3.04 5.44,-4.48 5.6,-5.92 5.28,-7.52 4.64,-8.8 3.52,-9.92 2.24,-10.72 0.8,-11.2 h -1.6 l -1.44,0.48 -1.28,0.8 -1.12,1.12 -0.64,1.28 -0.32,1.6 0.16,1.44 0.48,1.44 0.8,1.28 1.28,0.96 1.44,0.64 z"
         style="fill:none;stroke:#ff0000;stroke-width:0.95999998;stroke-linecap:round;stroke-linejoin:bevel;stroke-miterlimit:10;stroke-dasharray:none;stroke-opacity:1"
         id="path915"
         inkscape:connector-curvature="0" /></g><g
       id="g917"
       transform="translate(544.15997,495.35999)"
       style="stroke:#ff0000;stroke-opacity:1"><path
         d="M 0,0 1.44,-0.16 2.88,-0.8 4.16,-1.76 4.96,-3.04 5.44,-4.48 5.6,-5.92 5.28,-7.52 4.64,-8.8 3.52,-9.92 2.24,-10.72 0.8,-11.2 h -1.6 l -1.44,0.48 -1.28,0.8 -1.12,1.12 -0.64,1.28 -0.32,1.6 0.16,1.44 0.48,1.44 0.8,1.28 1.28,0.96 1.44,0.64 z"
         style="fill:none;stroke:#ff0000;stroke-width:0.95999998;stroke-linecap:round;stroke-linejoin:bevel;stroke-miterlimit:10;stroke-dasharray:none;stroke-opacity:1"
         id="path919"
         inkscape:connector-curvature="0" /></g><g
       id="g921"
       transform="translate(547.84003,268.64002)"
       style="stroke:#ff0000;stroke-opacity:1"><path
         d="M 0,0 1.44,-0.16 2.88,-0.8 4.16,-1.76 4.96,-3.04 5.44,-4.48 5.6,-5.92 5.28,-7.52 4.64,-8.8 3.52,-9.92 2.24,-10.72 0.8,-11.2 h -1.6 l -1.44,0.48 -1.28,0.8 -1.12,1.12 -0.64,1.28 -0.32,1.6 0.16,1.44 0.48,1.44 0.8,1.28 1.28,0.96 1.44,0.64 z"
         style="fill:none;stroke:#ff0000;stroke-width:0.95999998;stroke-linecap:round;stroke-linejoin:bevel;stroke-miterlimit:10;stroke-dasharray:none;stroke-opacity:1"
         id="path923"
         inkscape:connector-curvature="0" /></g><g
       id="g925"
       transform="translate(547.84003,438.72)"
       style="stroke:#ff0000;stroke-opacity:1"><path
         d="M 0,0 1.44,-0.16 2.88,-0.8 4.16,-1.76 4.96,-3.04 5.44,-4.48 5.6,-5.92 5.28,-7.52 4.64,-8.8 3.52,-9.92 2.24,-10.72 0.8,-11.2 h -1.6 l -1.44,0.48 -1.28,0.8 -1.12,1.12 -0.64,1.28 -0.32,1.6 0.16,1.44 0.48,1.44 0.8,1.28 1.28,0.96 1.44,0.64 z"
         style="fill:none;stroke:#ff0000;stroke-width:0.95999998;stroke-linecap:round;stroke-linejoin:bevel;stroke-miterlimit:10;stroke-dasharray:none;stroke-opacity:1"
         id="path927"
         inkscape:connector-curvature="0" /></g><g
       id="g929"
       transform="translate(256.95999,438.72)"
       style="stroke:#ff0000;stroke-opacity:1"><path
         d="M 0,0 1.44,-0.16 2.88,-0.8 4.16,-1.76 4.96,-3.04 5.44,-4.48 5.6,-5.92 5.28,-7.52 4.64,-8.8 3.52,-9.92 2.24,-10.72 0.8,-11.2 h -1.6 l -1.44,0.48 -1.28,0.8 -1.12,1.12 -0.64,1.28 -0.32,1.6 0.16,1.44 0.48,1.44 0.8,1.28 1.28,0.96 1.44,0.64 z"
         style="fill:none;stroke:#ff0000;stroke-width:0.95999998;stroke-linecap:round;stroke-linejoin:bevel;stroke-miterlimit:10;stroke-dasharray:none;stroke-opacity:1"
         id="path931"
         inkscape:connector-curvature="0" /></g><g
       id="g933"
       transform="translate(256.95999,325.28)"
       style="stroke:#ff0000;stroke-opacity:1"><path
         d="M 0,0 1.44,-0.16 2.88,-0.8 4.16,-1.76 4.96,-3.04 5.44,-4.48 5.6,-5.92 5.28,-7.52 4.64,-8.8 3.52,-9.92 2.24,-10.72 0.8,-11.2 h -1.6 l -1.44,0.48 -1.28,0.8 -1.12,1.12 -0.64,1.28 -0.32,1.6 0.16,1.44 0.48,1.44 0.8,1.28 1.28,0.96 1.44,0.64 z"
         style="fill:none;stroke:#ff0000;stroke-width:0.95999998;stroke-linecap:round;stroke-linejoin:bevel;stroke-miterlimit:10;stroke-dasharray:none;stroke-opacity:1"
         id="path935"
         inkscape:connector-curvature="0" /></g><g
       id="g937"
       transform="translate(256.95999,211.84)"
       style="stroke:#ff0000;stroke-opacity:1"><path
         d="M 0,0 1.44,-0.16 2.88,-0.8 4.16,-1.76 4.96,-3.04 5.44,-4.48 5.6,-5.92 5.28,-7.52 4.64,-8.8 3.52,-9.92 2.24,-10.72 0.8,-11.2 h -1.6 l -1.44,0.48 -1.28,0.8 -1.12,1.12 -0.64,1.28 -0.32,1.6 0.16,1.44 0.48,1.44 0.8,1.28 1.28,0.96 1.44,0.64 z"
         style="fill:none;stroke:#ff0000;stroke-width:0.95999998;stroke-linecap:round;stroke-linejoin:bevel;stroke-miterlimit:10;stroke-dasharray:none;stroke-opacity:1"
         id="path939"
         inkscape:connector-curvature="0" /></g><g
       id="g941"
       transform="translate(453.44,151.36)"
       style="stroke:#ff0000;stroke-opacity:1"><path
         d="M 0,0 1.44,-0.16 2.88,-0.8 4.16,-1.76 4.96,-3.04 5.44,-4.48 5.6,-5.92 5.28,-7.52 4.64,-8.8 3.52,-9.92 2.24,-10.72 0.8,-11.2 h -1.6 l -1.44,0.48 -1.28,0.8 -1.12,1.12 -0.64,1.28 -0.32,1.6 0.16,1.44 0.48,1.44 0.8,1.28 1.28,0.96 1.44,0.64 z"
         style="fill:none;stroke:#ff0000;stroke-width:0.95999998;stroke-linecap:round;stroke-linejoin:bevel;stroke-miterlimit:10;stroke-dasharray:none;stroke-opacity:1"
         id="path943"
         inkscape:connector-curvature="0" /></g><g
       id="g945"
       transform="translate(330.56,151.36)"
       style="stroke:#ff0000;stroke-opacity:1"><path
         d="M 0,0 1.44,-0.16 2.88,-0.8 4.16,-1.76 4.96,-3.04 5.44,-4.48 5.6,-5.92 5.28,-7.52 4.64,-8.8 3.52,-9.92 2.24,-10.72 0.8,-11.2 h -1.6 l -1.44,0.48 -1.28,0.8 -1.12,1.12 -0.64,1.28 -0.32,1.6 0.16,1.44 0.48,1.44 0.8,1.28 1.28,0.96 1.44,0.64 z"
         style="fill:none;stroke:#ff0000;stroke-width:0.95999998;stroke-linecap:round;stroke-linejoin:bevel;stroke-miterlimit:10;stroke-dasharray:none;stroke-opacity:1"
         id="path947"
         inkscape:connector-curvature="0" /></g><g
       id="g949"
       transform="translate(449.60001,499.04001)"
       style="stroke:#ff0000;stroke-opacity:1"><path
         d="M 0,0 1.44,-0.16 2.88,-0.8 4.16,-1.76 4.96,-3.04 5.44,-4.48 5.6,-5.92 5.28,-7.52 4.64,-8.8 3.52,-9.92 2.24,-10.72 0.8,-11.2 h -1.6 l -1.44,0.48 -1.28,0.8 -1.12,1.12 -0.64,1.28 -0.32,1.6 0.16,1.44 0.48,1.44 0.8,1.28 1.28,0.96 1.44,0.64 z"
         style="fill:none;stroke:#ff0000;stroke-width:0.95999998;stroke-linecap:round;stroke-linejoin:bevel;stroke-miterlimit:10;stroke-dasharray:none;stroke-opacity:1"
         id="path951"
         inkscape:connector-curvature="0" /></g></g></svg>